<svg width="14" height="14" viewBox="0 0 14 14" fill="none" xmlns="http://www.w3.org/2000/svg">
<g clip-path="url(#clip0)">
<path d="M1 12.6873C1 13.0354 1.15804 13.3693 1.43934 13.6154C1.72064 13.8616 2.10218 13.9998 2.5 13.9998H11.5C11.8978 13.9998 12.2794 13.8616 12.5607 13.6154C12.842 13.3693 13 13.0354 13 12.6873V3.49984H1V12.6873ZM9.5 5.68734C9.5 5.5713 9.55268 5.46002 9.64645 5.37798C9.74021 5.29593 9.86739 5.24984 10 5.24984C10.1326 5.24984 10.2598 5.29593 10.3536 5.37798C10.4473 5.46002 10.5 5.5713 10.5 5.68734V11.8123C10.5 11.9284 10.4473 12.0396 10.3536 12.1217C10.2598 12.2037 10.1326 12.2498 10 12.2498C9.86739 12.2498 9.74021 12.2037 9.64645 12.1217C9.55268 12.0396 9.5 11.9284 9.5 11.8123V5.68734ZM6.5 5.68734C6.5 5.5713 6.55268 5.46002 6.64645 5.37798C6.74021 5.29593 6.86739 5.24984 7 5.24984C7.13261 5.24984 7.25979 5.29593 7.35355 5.37798C7.44732 5.46002 7.5 5.5713 7.5 5.68734V11.8123C7.5 11.9284 7.44732 12.0396 7.35355 12.1217C7.25979 12.2037 7.13261 12.2498 7 12.2498C6.86739 12.2498 6.74021 12.2037 6.64645 12.1217C6.55268 12.0396 6.5 11.9284 6.5 11.8123V5.68734ZM3.5 5.68734C3.5 5.5713 3.55268 5.46002 3.64645 5.37798C3.74021 5.29593 3.86739 5.24984 4 5.24984C4.13261 5.24984 4.25978 5.29593 4.35355 5.37798C4.44732 5.46002 4.5 5.5713 4.5 5.68734V11.8123C4.5 11.9284 4.44732 12.0396 4.35355 12.1217C4.25978 12.2037 4.13261 12.2498 4 12.2498C3.86739 12.2498 3.74021 12.2037 3.64645 12.1217C3.55268 12.0396 3.5 11.9284 3.5 11.8123V5.68734ZM13.5 0.874837H9.75L9.45625 0.363509C9.39402 0.254192 9.29817 0.162238 9.17947 0.0979897C9.06078 0.0337416 8.92395 -0.000250643 8.78437 -0.000163053H5.2125C5.07324 -0.000631466 4.93665 0.0332341 4.81838 0.0975536C4.7001 0.161873 4.60492 0.254045 4.54375 0.363509L4.25 0.874837H0.5C0.367392 0.874837 0.240215 0.92093 0.146447 1.00298C0.0526784 1.08502 0 1.1963 0 1.31234L0 2.18734C0 2.30337 0.0526784 2.41465 0.146447 2.4967C0.240215 2.57874 0.367392 2.62484 0.5 2.62484H13.5C13.6326 2.62484 13.7598 2.57874 13.8536 2.4967C13.9473 2.41465 14 2.30337 14 2.18734V1.31234C14 1.1963 13.9473 1.08502 13.8536 1.00298C13.7598 0.92093 13.6326 0.874837 13.5 0.874837Z" fill="#E06C78"/>
</g>
<defs>
<clipPath id="clip0">
<rect width="14" height="14" fill="white"/>
</clipPath>
</defs>
</svg>
